<?xml version="1.0" encoding="UTF-8"?>
<!-- Created with Inkscape (http://www.inkscape.org/) -->
<svg id="SVGRoot" width="900px" height="600px" version="1.1" viewBox="0 0 900 600" xmlns="http://www.w3.org/2000/svg" xmlns:cc="http://creativecommons.org/ns#" xmlns:dc="http://purl.org/dc/elements/1.1/" xmlns:rdf="http://www.w3.org/1999/02/22-rdf-syntax-ns#">
 <metadata id="metadata1437">
  <rdf:RDF>
   <cc:Work rdf:about="">
    <dc:format>image/svg+xml</dc:format>
    <dc:type rdf:resource="http://purl.org/dc/dcmitype/StillImage"/>
    <dc:title/>
   </cc:Work>
  </rdf:RDF>
 </metadata>
 <g id="layer1">
  <g id="g817" transform="matrix(.46887 0 0 .5573 -.19223 -1.883)" stroke-width="1.9563" className="wavy-top">
   <path id="path815" class="a" d="m0.13786 1.8607h1919.8v298.84s-264.98-60.334-200.98 104.08c63.995 164.41-95.992 312.6-255.22 274.44-244.74-72.506-217.82 350.04-548.71 167.91-945.37-520.38-914.92-222.96-914.92-222.96z" fill="#152347" opacity=".93" stroke-width="1.9563" className="wavy-top-path"/>
  </g>
  <path id="path819" d="m899.89 155.18c-2.7808-0.75961-131.08-28.064-101.42 64.689 30.005 93.83-37.562 173.18-112.22 151.4-114.75-41.38-102.13 199.77-257.27 95.827-403.5-270.34-427.85-153.95-428.97-130.9-0.11077 2.2719 0 3.6539 0 3.6539v260.14h899.89z" fill="#f3efef" opacity=".93" className="wavy-bottom-path"/>
 </g>
</svg>
